<?xml version="1.0" standalone="no"?>
<!DOCTYPE svg PUBLIC "-//W3C//DTD SVG 20010904//EN"
 "http://www.w3.org/TR/2001/REC-SVG-20010904/DTD/svg10.dtd">
<svg version="1.0" xmlns="http://www.w3.org/2000/svg"
 width="600.000000pt" height="600.000000pt" viewBox="0 0 600.000000 600.000000"
 preserveAspectRatio="xMidYMid meet">
<metadata>
Created by potrace 1.14, written by Peter Selinger 2001-2017
</metadata>
<g transform="translate(0.000000,600.000000) scale(0.100000,-0.100000)"
fill="#000000" stroke="none">
<path d="M1130 3475 c0 -162 3 -205 13 -205 22 0 130 69 176 113 53 52 131
154 131 174 0 7 -16 38 -35 68 l-35 55 -125 0 -125 0 0 -205z"/>
<path d="M1920 3392 l0 -288 29 -17 c90 -53 204 -187 261 -308 l30 -64 0 483
0 482 -160 0 -160 0 0 -288z"/>
<path d="M3175 3640 c-141 -30 -200 -109 -199 -265 0 -94 15 -144 57 -191 55
-63 98 -79 217 -79 89 0 111 3 146 22 93 50 128 127 122 267 -3 83 -7 100 -34
142 -52 85 -188 130 -309 104z m144 -54 c48 -25 66 -84 66 -216 0 -95 -3 -122
-20 -155 -40 -80 -150 -99 -207 -36 -39 44 -51 100 -46 221 4 117 20 159 66
184 35 19 105 20 141 2z"/>
<path d="M4525 3646 c-5 -2 -22 -7 -37 -10 -73 -16 -119 -99 -98 -178 16 -57
56 -91 153 -128 116 -45 132 -63 115 -128 -14 -53 -80 -74 -161 -51 l-39 10 4
55 3 54 -42 0 -43 0 0 -54 0 -53 -37 -7 c-21 -3 -68 -6 -105 -6 l-68 0 0 224
0 224 40 7 c25 4 40 12 40 21 0 12 -54 14 -340 14 -291 0 -340 -2 -340 -15 0
-8 14 -17 35 -21 l35 -6 0 -223 0 -223 -35 -6 c-19 -4 -35 -13 -35 -20 0 -11
95 -15 528 -18 485 -4 530 -3 569 13 69 29 104 111 82 191 -15 57 -56 92 -152
128 -91 34 -131 69 -121 103 10 38 42 57 93 57 65 0 93 -18 104 -63 7 -27 14
-37 28 -37 17 0 19 8 19 64 0 59 -2 64 -23 70 -32 8 -160 17 -172 12z m-494
-385 c-5 -4 -15 -28 -21 -54 l-12 -47 -114 0 -114 0 0 95 0 95 70 0 c68 0 70
-1 70 -25 0 -20 5 -25 25 -25 25 0 25 1 25 81 0 78 -1 80 -22 77 -17 -2 -24
-11 -26 -30 -3 -28 -4 -28 -73 -28 l-69 0 0 95 0 95 105 0 105 0 0 -32 c1 -78
49 -78 52 -1 1 26 4 -28 5 -121 2 -100 0 -172 -6 -175z"/>
<path d="M2370 3625 c0 -9 12 -18 30 -21 l30 -6 0 -223 0 -222 -30 -6 c-18 -4
-30 -13 -30 -22 0 -12 17 -15 95 -15 76 0 95 3 95 15 0 8 -14 17 -35 21 l-35
6 0 187 c0 178 1 185 18 164 9 -12 80 -105 157 -207 121 -160 144 -185 168
-185 l27 -1 0 244 0 244 35 6 c21 4 35 13 35 21 0 12 -19 15 -100 15 -81 0
-100 -3 -100 -15 0 -8 14 -17 35 -21 l35 -6 0 -142 c-1 -141 -1 -141 -20 -116
-10 14 -65 86 -123 160 l-104 135 -91 3 c-78 2 -92 0 -92 -13z"/>
<path d="M1440 3424 c-70 -88 -172 -170 -284 -231 -60 -31 -60 -32 -31 -38
128 -29 198 -61 290 -129 91 -69 116 -114 165 -313 28 -110 50 -173 72 -210
31 -51 98 -116 144 -141 20 -11 22 -9 27 46 13 154 135 270 293 280 l73 5 -20
51 c-11 28 -40 78 -64 111 -132 183 -313 272 -539 263 l-95 -3 34 17 c18 10
36 22 39 27 5 7 -44 274 -57 314 -1 4 -22 -18 -47 -49z"/>
<path d="M1579 3306 l26 -126 63 0 c48 0 61 3 56 13 -10 16 -155 219 -164 230
-4 5 4 -48 19 -117z"/>
<path d="M1130 2670 l0 -410 163 2 162 3 3 313 2 313 -27 35 c-40 53 -129 112
-201 134 -114 35 -102 79 -102 -390z"/>
<path d="M2360 2910 c0 -5 7 -10 15 -10 12 0 15 -18 15 -105 0 -87 -3 -105
-15 -105 -8 0 -15 -4 -15 -10 0 -6 28 -10 65 -10 37 0 65 4 65 10 0 6 -9 10
-20 10 -17 0 -20 7 -20 45 0 42 2 45 26 45 17 0 28 -6 31 -20 9 -36 23 -21 23
25 0 44 -12 60 -24 30 -3 -8 -17 -15 -31 -15 -23 0 -25 3 -25 51 l0 50 43 -3
c35 -2 43 -7 45 -25 5 -31 22 -29 22 2 0 16 6 25 15 25 12 0 15 -18 15 -105 0
-85 -3 -105 -14 -105 -8 0 -18 -4 -21 -10 -4 -6 37 -10 114 -10 108 0 123 2
141 20 21 21 27 74 10 100 -5 8 -33 26 -61 40 -60 28 -70 44 -39 60 29 15 66
5 73 -20 9 -33 29 -23 25 13 l-3 32 -227 3 c-151 2 -228 -1 -228 -8z m303 -47
c-6 -45 19 -73 79 -92 38 -12 51 -31 42 -56 -14 -36 -90 -28 -100 11 -9 34
-22 30 -27 -8 -2 -18 -5 15 -5 75 -1 59 2 107 7 107 5 0 7 -17 4 -37z"/>
<path d="M2860 2910 c0 -5 7 -10 15 -10 12 0 15 -18 15 -105 0 -87 -3 -105
-15 -105 -8 0 -15 -4 -15 -10 0 -6 27 -10 60 -10 33 0 60 4 60 10 0 6 -7 10
-15 10 -11 0 -15 12 -15 50 l0 50 50 0 50 0 0 -50 c0 -37 -4 -50 -14 -50 -8 0
-18 -4 -21 -10 -4 -6 18 -10 59 -10 37 0 66 4 66 10 0 6 -7 10 -15 10 -12 0
-15 18 -15 105 0 87 3 105 15 105 8 0 15 5 15 10 0 6 -29 10 -66 10 -41 0 -63
-4 -59 -10 3 -5 13 -10 21 -10 10 0 14 -12 14 -45 l0 -45 -50 0 -50 0 0 45 c0
33 4 45 15 45 8 0 15 5 15 10 0 6 -27 10 -60 10 -33 0 -60 -4 -60 -10z"/>
<path d="M3240 2910 c0 -5 7 -10 15 -10 12 0 15 -18 15 -105 0 -87 -3 -105
-15 -105 -8 0 -15 -4 -15 -10 0 -6 37 -10 90 -10 85 0 91 2 122 29 31 28 33
33 33 96 0 63 -2 68 -33 96 -31 27 -37 29 -122 29 -53 0 -90 -4 -90 -10z m163
-38 c26 -23 24 -135 -3 -162 -11 -11 -29 -20 -40 -20 -19 0 -20 7 -20 106 0
105 0 105 23 98 12 -3 30 -13 40 -22z"/>
<path d="M3510 2910 c0 -5 7 -10 15 -10 12 0 15 -18 15 -105 0 -87 -3 -105
-15 -105 -8 0 -15 -4 -15 -10 0 -6 43 -10 110 -10 81 0 110 3 110 13 0 6 3 22
6 35 5 16 2 22 -9 22 -9 0 -17 -10 -19 -22 -3 -20 -10 -23 -55 -26 l-53 -3 0
50 c0 50 1 51 30 51 20 0 30 -5 30 -15 0 -8 7 -15 15 -15 11 0 15 11 15 40 0
40 -15 54 -26 25 -4 -9 -19 -15 -35 -15 -28 0 -29 2 -29 46 l0 45 43 -3 c32
-2 44 -8 52 -25 14 -33 25 -28 25 12 l0 35 -105 0 c-63 0 -105 -4 -105 -10z"/>
<path d="M3760 2910 c0 -5 7 -10 15 -10 12 0 15 -18 15 -105 0 -87 -3 -105
-15 -105 -8 0 -15 -4 -15 -10 0 -6 43 -10 110 -10 98 0 110 2 110 18 0 9 3 27
6 40 9 31 -12 28 -28 -5 -11 -24 -20 -28 -61 -31 l-47 -3 0 105 c0 86 3 106
14 106 8 0 18 5 21 10 4 6 -18 10 -59 10 -37 0 -66 -4 -66 -10z"/>
<path d="M4010 2910 c0 -5 7 -10 15 -10 12 0 15 -18 15 -105 0 -87 -3 -105
-15 -105 -8 0 -15 -4 -15 -10 0 -6 29 -10 66 -10 41 0 63 4 59 10 -3 6 -13 10
-21 10 -11 0 -14 20 -14 105 0 85 3 105 14 105 8 0 18 5 21 10 4 6 -18 10 -59
10 -37 0 -66 -4 -66 -10z"/>
<path d="M4150 2911 c0 -5 4 -11 9 -13 5 -1 31 -55 58 -118 29 -69 54 -115 63
-115 8 0 32 44 60 114 25 63 51 116 58 119 9 3 12 -23 12 -102 0 -88 -3 -106
-15 -106 -8 0 -15 -4 -15 -10 0 -6 52 -10 136 -10 120 0 135 2 130 16 -3 9 -6
24 -6 35 0 24 -20 25 -20 2 -1 -15 -4 -14 -21 7 -12 14 -16 26 -10 28 6 2 11
18 11 35 0 18 9 45 19 60 l19 29 31 -58 c37 -70 43 -134 11 -134 -11 0 -20 -4
-20 -10 0 -6 30 -10 70 -10 40 0 70 4 70 10 0 6 -9 10 -20 10 -16 0 -20 7 -20
35 0 43 64 175 85 175 8 0 15 5 15 10 0 6 -20 10 -45 10 -25 0 -45 -4 -45 -10
0 -5 7 -10 15 -10 12 0 11 -8 -7 -45 -12 -25 -25 -45 -28 -45 -3 0 -16 20 -28
45 -18 37 -19 45 -7 45 8 0 15 5 15 10 0 6 -74 10 -202 9 -150 0 -199 -3 -187
-11 17 -12 19 -5 -31 -133 l-11 -30 -30 70 c-24 55 -28 74 -20 88 10 15 6 17
-44 17 -30 0 -55 -4 -55 -9z m388 -58 c-4 -52 -28 -56 -28 -4 0 30 4 41 16 41
11 0 14 -9 12 -37z m3 -145 c8 -15 6 -18 -11 -18 -16 0 -20 6 -20 33 0 33 4
31 31 -15z"/>
<path d="M2045 2609 c-38 -11 -111 -72 -130 -109 -22 -42 -35 -112 -28 -152 5
-36 6 -37 86 -58 46 -13 114 -23 161 -23 l81 -2 13 75 c14 85 1 258 -21 272
-16 10 -124 9 -162 -3z m84 -73 c16 -20 3 -46 -24 -46 -13 0 -26 7 -29 16 -7
19 10 44 29 44 7 0 18 -6 24 -14z"/>
<path d="M2785 2335 c0 -69 2 -75 20 -75 18 0 20 5 17 40 -3 33 -1 40 13 40
14 0 16 -7 13 -40 -3 -35 -1 -40 17 -40 19 0 20 4 15 48 -5 43 -7 47 -32 47
-24 -1 -28 3 -28 27 0 20 -5 28 -17 28 -16 0 -18 -10 -18 -75z"/>
<path d="M3015 2400 c-38 -4 -64 -7 -57 -8 8 -1 12 -21 12 -61 0 -38 -4 -61
-12 -64 -7 -3 7 -5 32 -5 25 0 39 2 33 5 -18 7 -16 53 1 53 8 0 17 -6 19 -12
3 -7 5 1 5 17 0 17 -2 24 -5 18 -10 -26 -33 -13 -33 17 0 23 5 30 19 30 29 0
54 -46 49 -92 l-4 -39 56 3 c48 3 55 6 58 25 2 16 -4 26 -22 35 -29 12 -34 28
-11 28 8 0 15 -5 15 -11 0 -5 5 -7 11 -3 17 10 -5 26 -32 22 -36 -5 -37 -43
-3 -61 18 -9 23 -17 15 -21 -7 -4 -18 -3 -25 4 -11 8 -15 8 -19 -2 -3 -7 -6 8
-6 35 -1 40 -4 47 -21 47 -11 0 -20 6 -20 14 0 9 7 12 20 9 14 -4 20 0 20 11
0 9 -6 15 -12 14 -7 -1 -44 -4 -83 -8z"/>
<path d="M3215 2335 c0 -74 0 -75 25 -75 24 0 25 3 22 40 -3 25 0 40 7 40 6 0
11 -17 11 -40 0 -35 3 -40 23 -40 21 0 23 3 17 48 -4 42 -8 47 -32 50 -22 3
-28 9 -28 28 0 18 -5 24 -22 24 -22 0 -23 -4 -23 -75z"/>
<path d="M3735 2400 c-3 -6 1 -13 10 -16 19 -8 30 0 20 15 -8 14 -22 14 -30 1z"/>
<path d="M3799 2388 c-7 -13 -11 -44 -10 -70 1 -28 -2 -48 -9 -48 -5 0 -10 20
-10 45 l0 45 -40 0 c-33 0 -40 -3 -40 -19 0 -28 -17 -35 -25 -11 -9 28 -23 25
-31 -6 -6 -23 -8 -24 -16 -10 -5 10 -7 24 -4 32 4 10 -2 14 -23 14 l-29 0 19
-40 c10 -21 19 -44 19 -50 0 -19 19 -10 33 16 l14 27 7 -27 c9 -37 27 -28 44
22 18 56 35 54 30 -3 l-3 -45 55 0 56 0 -4 41 c-3 28 0 44 9 50 10 6 11 9 2 9
-7 0 -13 9 -13 20 0 14 5 18 17 13 11 -4 14 -3 9 5 -12 20 -44 14 -57 -10z"/>
<path d="M4235 2335 l0 -75 55 0 55 0 -3 50 c-3 44 -7 50 -26 50 -19 0 -21 -4
-18 -45 3 -28 0 -45 -7 -45 -7 0 -11 26 -11 70 0 66 -1 70 -22 70 -22 0 -23
-4 -23 -75z"/>
<path d="M4305 2400 c-3 -6 1 -13 10 -16 19 -8 30 0 20 15 -8 14 -22 14 -30 1z"/>
<path d="M2388 2393 c7 -3 12 -26 12 -63 0 -37 -5 -60 -12 -63 -7 -3 7 -5 32
-5 25 0 37 2 28 5 -20 5 -24 38 -8 48 6 4 17 1 25 -5 13 -10 15 -8 14 16 0 16
-3 23 -6 17 -2 -7 -14 -13 -24 -13 -30 0 -22 54 7 58 27 4 48 -43 42 -93 -4
-32 -2 -35 22 -35 24 0 26 3 22 35 -5 44 11 46 23 3 8 -27 16 -34 43 -36 18
-2 32 1 32 7 0 6 -9 11 -20 11 -11 0 -20 7 -20 15 0 9 9 15 25 15 15 0 25 6
25 14 0 23 -27 38 -67 36 -73 -4 -83 -1 -83 20 0 18 -6 20 -62 19 -35 0 -57
-3 -50 -6z m232 -64 c0 -5 -4 -9 -10 -9 -5 0 -10 7 -10 16 0 8 5 12 10 9 6 -3
10 -10 10 -16z"/>
<path d="M3464 2386 c-11 -28 1 -51 34 -65 20 -9 32 -21 30 -30 -4 -22 -33
-25 -52 -5 -19 18 -32 13 -23 -11 4 -10 20 -15 47 -15 33 0 42 4 52 25 13 29
2 47 -42 65 -33 14 -38 27 -14 37 10 4 22 -1 29 -10 16 -23 25 -21 25 3 0 17
-7 20 -40 20 -26 0 -43 -5 -46 -14z"/>
<path d="M3988 2393 c7 -3 12 -26 12 -63 0 -37 -5 -60 -12 -63 -7 -3 12 -6 42
-6 30 0 60 3 66 7 20 13 36 54 30 77 -11 42 -33 55 -94 54 -31 0 -51 -3 -44
-6z m86 -19 c28 -28 14 -104 -19 -104 -12 0 -15 14 -15 60 0 62 7 71 34 44z"/>
<path d="M3874 2370 c-5 -5 -7 -31 -4 -57 5 -45 7 -48 35 -51 27 -2 28 -1 13
11 -20 15 -25 77 -7 77 6 0 4 7 -5 15 -17 18 -19 18 -32 5z"/>
<path d="M2689 2344 c-12 -14 -9 -20 16 -40 31 -25 27 -46 -5 -26 -17 10 -20
10 -20 -3 0 -19 53 -20 69 -1 15 17 5 44 -20 51 -10 4 -19 11 -19 16 0 13 14
11 28 -3 9 -9 12 -8 12 5 0 22 -43 23 -61 1z"/>
<path d="M4152 2348 c-7 -7 -12 -24 -12 -38 0 -14 5 -31 12 -38 14 -14 68 -16
68 -2 0 6 -9 10 -20 10 -11 0 -20 7 -20 15 0 9 9 15 25 15 28 0 29 3 15 31
-12 21 -50 25 -68 7z m35 -20 c-3 -8 -6 -5 -6 6 -1 11 2 17 5 13 3 -3 4 -12 1
-19z"/>
<path d="M4393 2310 c11 -27 25 -50 29 -50 4 0 19 23 33 50 24 47 24 50 6 50
-10 0 -19 -6 -18 -12 0 -7 -1 -22 -2 -33 -2 -18 -3 -18 -15 5 -8 14 -12 28
-10 32 3 5 -6 8 -20 8 l-24 0 21 -50z"/>
<path d="M4488 2335 c-17 -38 3 -75 42 -75 16 0 30 5 30 10 0 6 -9 10 -20 10
-11 0 -20 7 -20 15 0 9 9 15 25 15 27 0 33 18 13 38 -21 21 -57 14 -70 -13z
m52 -6 c0 -5 -4 -9 -10 -9 -5 0 -10 7 -10 16 0 8 5 12 10 9 6 -3 10 -10 10
-16z"/>
<path d="M4615 2310 c0 -49 1 -50 30 -49 17 0 24 3 18 6 -7 2 -13 18 -13 34 0
40 34 40 55 -1 24 -47 17 -92 -12 -69 -10 9 -13 8 -13 -5 0 -12 7 -16 22 -14
16 2 28 20 50 72 33 80 32 76 15 76 -7 0 -13 -10 -14 -21 -1 -12 -4 -24 -7
-27 -9 -8 -17 3 -19 27 -1 16 -8 21 -27 21 -14 0 -31 -5 -38 -12 -9 -9 -12 -9
-12 0 0 7 -8 12 -17 12 -15 0 -18 -9 -18 -50z"/>
<path d="M3344 2266 c4 -15 1 -26 -7 -29 -7 -3 -5 -6 5 -6 19 -1 42 34 33 49
-3 6 -13 10 -22 10 -11 0 -14 -6 -9 -24z"/>
</g>
</svg>
